<?xml version="1.0" encoding="UTF-8" standalone="no"?>
<!DOCTYPE svg PUBLIC "-//W3C//DTD SVG 1.1//EN" "http://www.w3.org/Graphics/SVG/1.1/DTD/svg11.dtd">
<svg stroke-width="0.501" stroke-linejoin="bevel" fill-rule="evenodd" xmlns:xlink="http://www.w3.org/1999/xlink" xmlns="http://www.w3.org/2000/svg" version="1.1" overflow="visible" width="192pt" height="192pt" viewBox="0 0 192 192"><script xmlns=""/>
 <defs>
  <radialGradient id="RadialGradient" gradientUnits="userSpaceOnUse" cx="0" cy="0" r="29.685" gradientTransform="translate(138.543 78.909) rotate(178.728) scale(1 2.40485)">
   <stop offset="0" stop-color="#ffffff"/>
   <stop offset="0.1" stop-color="#f6f6f6"/>
   <stop offset="0.2" stop-color="#ececec"/>
   <stop offset="0.3" stop-color="#dedede"/>
   <stop offset="0.4" stop-color="#cecece"/>
   <stop offset="0.5" stop-color="#b8b8b8"/>
   <stop offset="0.6" stop-color="#9b9b9b"/>
   <stop offset="0.7" stop-color="#727272"/>
   <stop offset="0.8" stop-color="#484848"/>
   <stop offset="0.9" stop-color="#232323"/>
   <stop offset="1" stop-color="#000000"/>
  </radialGradient>
 </defs>
 <g id="Document" fill="none" stroke="black" font-family="Times New Roman" font-size="16" transform="scale(1 -1)">
  <g id="Spread" transform="translate(0 -192)">
   <g id="Layer 1">
    <mask id="TranspMask">
     <rect x="-10%" y="-10%" width="120%" height="120%" fill="url(#RadialGradient)" stroke="none"/>
    </mask>
    <path d="M 103.725,197.999 L 103.725,5.714 L 136.564,5.714 L 136.564,197.999 L 103.725,197.999 Z" fill="#cb736d" stroke="none" stroke-linecap="round" stroke-width="0.75" stroke-linejoin="miter" marker-start="none" marker-end="none" stroke-miterlimit="79.8403193612775" mask="url(#TranspMask)"/>
    <path d="M 106.464,55.439 C 103.259,65.569 98.236,79.347 91.504,87.627 C 91.209,87.991 90.907,88.341 90.599,88.674 C 92.084,90.72 95.403,95.85 96.81,98.328 C 100.743,105.254 113.589,125.848 121.657,126.34 C 126.717,126.648 131.345,121.632 135.742,119.218 C 136.013,119.069 136.287,118.928 136.564,118.794 L 136.565,23.979 L 136.565,23.964 C 125.493,24.645 110.387,43.038 106.464,55.439 Z" stroke-linejoin="round" stroke-linecap="round" stroke="#5d677a" stroke-width="1.5" fill="#a1aaba" marker-start="none" marker-end="none" stroke-miterlimit="79.8403193612775"/>
    <path d="M 104.122,91.966 C 100.547,111.038 121.26,109.454 136.565,103.798 L 136.565,44.9 L 136.565,44.896 C 124.063,57.525 105.379,85.254 104.122,91.966 Z" stroke-linejoin="round" stroke-linecap="round" fill="#d0d3da" stroke-width="0.75" stroke="none" marker-start="none" marker-end="none" stroke-miterlimit="79.8403193612775"/>
    <path d="M 136.961,187.318 L 136.961,6.063" fill="none" stroke="#7f3a35" stroke-width="1.5" stroke-linecap="round" stroke-linejoin="round" stroke-miterlimit="79.8403193612775"/>
    <path d="M 107.413,165.905 C 114.219,164.164 118.012,164.848 122.132,164.322 C 121.648,163.863 121.101,161.791 120.707,161.474 C 123.719,161.614 126.879,162.74 129.886,163.848 C 129.891,162.836 127.814,159.265 127.354,158.15 C 129.373,158.235 133.505,158.467 135.425,158.308 C 134.671,156.333 132.339,152.69 129.886,151.187 C 132.225,150.988 132.681,152.423 134.792,150.395 C 134.682,149.921 132.904,145.841 131.401,142.498 C 130.566,138.727 129.285,135.234 128.602,131.406 C 128.513,129.046 128.38,126.593 128.145,125.232 C 126.44,115.326 112.668,97.044 104.09,91.839 C 99.357,88.967 79.014,80.647 74.337,81.869 C 71.82,80.888 72.47,77.806 72.121,75.697 C 70.683,77.045 68.717,78.618 67.374,79.812 C 65.759,78.391 65.499,75.723 65.949,73.639 C 61.348,75.24 62.182,76.155 60.331,79.178 C 58.982,76.358 59.342,73.829 59.783,70.679 C 56.56,72.737 54.475,81.064 53.655,84.738 C 52.564,83.721 52.988,82.313 52.26,81.552 C 51.429,85.048 50.691,88.86 51.152,92.631 C 50.282,92.202 49.248,91.471 48.519,90.912 C 48.231,92.412 49.137,101.401 48.857,105.291 C 48.328,112.649 44.336,121.393 43.793,130.455 C 43.318,138.368 44.69,144.319 47.908,150.079 C 55.764,164.137 77.801,179.322 94.594,171.128 C 97.994,169.469 103.14,167.013 107.413,165.905 Z" stroke-linejoin="round" stroke-linecap="round" fill="#a1aaba" stroke-width="1.5" stroke="#5d677a" marker-start="none" marker-end="none" stroke-miterlimit="79.8403193612775"/>
    <path d="M 58.755,72.785 L 58.663,72.907 C 56.593,75.94 55.096,81.716 54.386,84.901 C 54.26,85.466 53.566,85.681 53.143,85.286 C 52.841,85.005 52.625,84.688 52.465,84.365 L 52.43,84.267 L 52.406,84.376 C 51.878,87.058 51.563,89.818 51.896,92.539 C 51.968,93.13 51.353,93.566 50.82,93.303 C 50.35,93.071 49.845,92.763 49.365,92.443 L 49.215,92.338 L 49.215,92.375 C 49.237,93.46 49.323,95.103 49.433,97.165 L 49.514,98.991 L 49.783,97.466 C 49.952,96.596 50.14,95.745 50.361,94.925 C 51.551,96.188 51.85,97.746 53.209,99.146 C 53.679,96.083 52.466,92.117 53.842,89.307 C 54.261,90.765 54.776,92.435 55.9,93.343 C 56.216,91.409 55.369,88.925 56.928,87.725 C 58.12,88.848 58.07,90.344 59.211,91.707 C 60.373,90.046 59.203,87.768 60.529,85.945 C 61.665,87.195 61.05,89.077 62.309,90.204 C 63.026,87.953 62.019,85.629 63.991,84.579 C 65.03,86.386 66.188,89.063 68.481,89.307 C 69.357,87.626 67.453,82.487 70.697,82.977 C 72.428,84.117 73.068,86.514 74.891,87.408 C 75.934,86.06 75.214,84.269 75.96,82.7 C 77.215,83.281 77.274,85.557 79.085,85.192 C 79.351,84.617 79.563,84.037 79.724,83.453 L 79.78,83.157 L 78.265,82.819 C 76.592,82.493 75.289,82.394 74.526,82.594 C 74.373,82.634 74.211,82.625 74.064,82.567 C 71.8,81.685 71.618,79.509 71.522,77.592 L 71.504,77.259 L 71.465,77.294 C 70.224,78.377 68.832,79.517 67.872,80.372 C 67.589,80.624 67.162,80.625 66.878,80.375 C 65.438,79.108 64.957,77.093 65.005,75.242 L 65.039,74.786 L 64.759,74.9 C 63.568,75.422 63.054,75.857 62.711,76.321 C 62.154,77.073 62.01,77.871 60.97,79.569 C 60.66,80.075 59.91,80.036 59.654,79.501 C 58.559,77.212 58.514,75.092 58.745,72.858 L 58.755,72.785 Z" stroke-linejoin="round" stroke-linecap="round" fill="#d0d3da" stroke-width="0" stroke="none" marker-start="none" marker-end="none" stroke-miterlimit="79.8403193612775"/>
    <path d="M 129.926,143.947 C 128.82,143.488 127.494,141.69 126.246,141.058 C 126.477,142.093 127.811,148.724 127.75,148.892 C 126.771,149.269 126.137,148.486 125.139,148.496 C 125.296,149.694 126.132,151.801 126.009,152.611 C 125.106,152.394 123.784,151.497 122.923,151.028 C 123.14,152.566 123.524,153.969 123.635,155.46 C 123.215,155.215 118.693,153.228 118.175,153.086 C 118.853,154.931 119.501,157.411 119.758,159.575 C 118.267,159.711 117.265,158.811 116.118,158.704 C 116.489,159.945 117.36,160.444 117.63,161.679 C 115.967,162.479 113.647,161.683 112.003,161.711 C 112.117,161.79 112.602,162.47 113.053,163.196 L 113.553,164.071 L 114.836,163.961 C 116.994,163.816 118.839,163.832 120.573,163.716 L 120.928,163.682 L 120.76,163.307 C 120.582,162.872 120.426,162.456 120.304,162.206 L 120.199,162.028 L 120.167,161.995 C 119.697,161.508 120.065,160.693 120.741,160.724 C 123.101,160.834 125.53,161.521 127.857,162.322 L 128.709,162.628 L 128.551,162.266 C 128.426,161.993 128.281,161.692 128.12,161.367 C 127.571,160.262 126.903,159.023 126.66,158.436 C 126.452,157.93 126.839,157.377 127.385,157.4 C 128.931,157.465 131.6,157.609 133.622,157.612 L 134.281,157.604 L 133.921,156.919 C 132.878,155.081 131.189,152.865 129.494,151.826 C 128.879,151.449 129.103,150.5 129.822,150.439 C 131.074,150.333 132.09,150.681 132.513,150.732 C 132.798,150.765 133.111,150.767 133.65,150.381 L 133.918,150.171 L 133.699,149.63 C 133.099,148.178 131.861,145.352 130.716,142.805 C 130.695,142.758 130.679,142.71 130.668,142.66 C 130.462,141.733 130.227,140.814 129.979,139.897 L 129.938,139.75 L 129.95,139.945 C 130.031,141.31 130.127,143.255 129.926,143.947 Z" stroke-linejoin="round" stroke-linecap="round" fill="#d0d3da" stroke-width="0" stroke="none" marker-start="none" marker-end="none" stroke-miterlimit="79.8403193612775"/>
    <path d="M 63.572,163.585 C 61.959,169.746 57.281,181.011 58.186,183.372 C 60.072,188.294 73.76,182.353 78.681,180.188 C 82.42,178.544 91.376,173.084 90.777,169.864 C 90.195,166.736 82.233,165.995 79.448,165.204 C 75.714,164.146 67.452,163.228 64.47,161.79 C 64.416,162.222 63.704,163.084 63.572,163.585 Z" fill="#a1aaba" stroke-width="1.557" stroke="#5d677a" stroke-linecap="round" stroke-linejoin="round" marker-start="none" marker-end="none" stroke-miterlimit="79.8403193612775"/>
    <path d="M 48.213,120.796 C 45.115,123.254 39.037,127.849 35.874,130.861 C 33.986,132.658 23.469,142.673 24.88,146.073 C 26.274,149.434 32.712,149.674 38.434,150.439 C 47.32,151.344 55.627,151.964 56.959,150.139 C 59.941,146.052 50.909,125.729 49.127,120.167 C 48.864,120.309 48.555,120.523 48.213,120.796 Z" fill="#a1aaba" stroke-width="1.5" stroke="#5d677a" stroke-linecap="round" stroke-linejoin="round" marker-start="none" marker-end="none" stroke-miterlimit="79.8403193612775"/>
    <path d="M 131.944,152.136 C 130.152,148.577 131.397,143.99 135.9,142.641 C 136.228,142.535 139.065,141.691 141.598,142.799 C 144.726,144.167 147.3,149.298 143.813,152.611 C 148.244,155.143 149.194,164.955 143.971,167.329 C 145.799,170.078 142.901,177.238 140.015,178.566 C 132.102,182.206 123.872,173.027 130.797,164.138 C 127.919,161.056 128.891,154.764 131.944,152.136 Z" stroke-width="1.5" fill="#d0d3da" stroke="#5d677a" stroke-linecap="round" stroke-linejoin="round" marker-start="none" marker-end="none" stroke-miterlimit="79.8403193612775"/>
    <path d="M 128.62,40.563 C 124.224,39.577 124.031,28.694 128.462,27.269 C 127.302,26.792 126.572,25.887 126.246,24.579 C 125.455,20.939 127.421,18.592 129.728,17.141 C 134.614,14.066 141.057,14.931 141.756,21.572 C 142.072,24.579 140.806,25.37 140.331,26.32 C 142.864,28.06 147.922,33.923 142.666,38.565 C 143.245,39.213 144.182,40.938 144.288,41.829 C 144.947,47.409 142.052,51.613 136.533,52.274 C 130.082,53.048 125.455,44.52 128.62,40.563 Z" stroke-width="1.5" fill="#d0d3da" stroke="#5d677a" stroke-linecap="round" stroke-linejoin="round" marker-start="none" marker-end="none" stroke-miterlimit="79.8403193612775"/>
    <path d="M 90.954,86.142 C 92.682,83.833 94.519,80.383 95.702,78.229 C 109.154,81.394 120.391,94.055 127.354,104.817 C 130.119,109.091 134.059,115.716 134.476,120.484 C 133.635,121.22 128.595,125.066 127.512,125.39 C 122.448,114.154 110.737,98.011 101.083,91.681 C 97.53,89.35 94.436,87.25 90.954,86.142 Z" fill="#7d7da9" stroke-width="1.5" stroke="#58597e" stroke-linecap="round" stroke-linejoin="round" marker-start="none" marker-end="none" stroke-miterlimit="79.8403193612775"/>
    <path d="M 92.21,118.983 C 90.128,117.353 87.528,116.565 86.776,118.656 C 85.684,121.693 90.187,125.501 92.716,125.119 C 96.676,124.52 94.866,121.065 92.21,118.983 Z" fill="#5d677a" stroke="none" stroke-linecap="round" stroke-linejoin="round" stroke-width="0.75" marker-start="none" marker-end="none" stroke-miterlimit="79.8403193612775"/>
    <path d="M 61.198,133.12 C 65.461,135.323 71.559,132.007 74.808,125.719 C 78.057,119.431 77.233,112.539 72.971,110.336 C 68.708,108.133 62.61,111.449 59.361,117.738 C 56.112,124.026 56.936,130.918 61.198,133.12 Z" fill="#ededed" stroke-width="1.5" stroke="#5d677a" stroke-linecap="round" stroke-linejoin="round" marker-start="none" marker-end="none" stroke-miterlimit="79.8403193612775"/>
    <path d="M 89.309,154.285 C 93.592,156.498 99.625,153.346 102.774,147.252 C 105.923,141.157 105.003,134.412 100.72,132.199 C 96.437,129.986 90.403,133.138 87.254,139.233 C 84.106,145.327 85.026,152.072 89.309,154.285 Z" fill="#ededed" stroke-width="1.5" stroke="#5d677a" stroke-linecap="round" stroke-linejoin="round" marker-start="none" marker-end="none" stroke-miterlimit="79.8403193612775"/>
    <path d="M 91.746,119.693 C 94.956,115.689 94.424,109.377 90.005,106.241 C 82.659,101.03 77.65,108.089 81.617,108.298" fill="none" stroke-width="1.5" stroke="#5d677a" stroke-linecap="round" stroke-linejoin="round" stroke-miterlimit="79.8403193612775"/>
    <path d="M 93.464,116.291 C 95.904,113.393 104.257,115.734 101.874,120.801" fill="none" stroke-width="1.5" stroke="#5d677a" stroke-linecap="round" stroke-linejoin="round" stroke-miterlimit="79.8403193612775"/>
    <path d="M 94.911,110.039 C 98.312,107.347 101.646,114.942 97.76,114.787" fill="none" stroke-width="1.5" stroke="#5d677a" stroke-linecap="round" stroke-linejoin="round" stroke-miterlimit="79.8403193612775"/>
    <path d="M 120.945,88.357 C 126.229,88.357 130.519,83.294 130.519,77.057 C 130.519,70.82 126.229,65.757 120.945,65.757 C 115.66,65.757 111.37,70.82 111.37,77.057 C 111.37,83.294 115.66,88.357 120.945,88.357 Z" fill="#dccca1" stroke-width="1.5" stroke="#907a4b" stroke-linecap="round" stroke-linejoin="round" marker-start="none" marker-end="none" stroke-miterlimit="79.8403193612775"/>
    <path d="M 45.968,125.206 C 46.566,120.789 48.054,116.078 50.915,116.37 C 51.7,116.45 52.832,117.412 53.13,118.269 C 55.285,124.447 62.052,144.273 62.151,149.921 C 62.185,151.841 62.166,153.154 60.568,153.877 C 51.937,157.784 47.164,136.959 45.85,132.196 C 45.569,131.175 45.555,128.26 45.968,125.206 Z" fill="#a1aaba" stroke="none" stroke-linecap="round" stroke-linejoin="round" stroke-width="0.75" marker-start="none" marker-end="none" stroke-miterlimit="79.8403193612775"/>
    <path d="M 64.243,164.073 C 62.468,162.693 61.513,161.235 61.866,159.828 C 66.962,154.392 89.505,164.626 94.12,167.488 C 94.409,174.434 71.83,169.966 64.243,164.073 Z" fill="#a1aaba" stroke="none" stroke-linecap="round" stroke-linejoin="round" stroke-width="0.75" marker-start="none" marker-end="none" stroke-miterlimit="79.8403193612775"/>
    <path d="M 63.943,128.34 C 66.726,129.788 70.709,127.608 72.829,123.476 C 74.949,119.344 74.411,114.812 71.627,113.365 C 68.844,111.918 64.861,114.097 62.741,118.229 C 60.621,122.361 61.16,126.893 63.943,128.34 Z" fill="#444d5d" stroke-width="0.9" stroke="none" stroke-linecap="round" stroke-linejoin="round" marker-start="none" marker-end="none" stroke-miterlimit="79.8403193612775"/>
    <path d="M 91.489,150.475 C 94.108,151.837 97.855,149.786 99.85,145.897 C 101.845,142.007 101.339,137.742 98.719,136.38 C 96.1,135.019 92.353,137.069 90.358,140.959 C 88.363,144.849 88.869,149.113 91.489,150.475 Z" fill="#444d5d" stroke-width="0.85" stroke="none" stroke-linecap="round" stroke-linejoin="round" marker-start="none" marker-end="none" stroke-miterlimit="79.8403193612775"/>
    <path d="M 64.514,124.721 C 65.54,125.253 66.932,124.596 67.621,123.253 C 68.309,121.91 68.036,120.388 67.011,119.856 C 65.986,119.324 64.593,119.981 63.904,121.324 C 63.216,122.667 63.489,124.189 64.514,124.721 Z" fill="#a1aaba" stroke-width="0.292" stroke="none" stroke-linecap="round" stroke-linejoin="round" marker-start="none" marker-end="none" stroke-miterlimit="79.8403193612775"/>
    <path d="M 91.502,147.943 C 92.466,148.444 93.776,147.825 94.424,146.56 C 95.073,145.296 94.816,143.863 93.852,143.362 C 92.888,142.862 91.579,143.481 90.93,144.745 C 90.282,146.01 90.538,147.443 91.502,147.943 Z" fill="#a1aaba" stroke-width="0.276" stroke="none" stroke-linecap="round" stroke-linejoin="round" marker-start="none" marker-end="none" stroke-miterlimit="79.8403193612775"/>
    <path d="M 71.33,168.121 C 69.91,169.78 65.237,178.933 66.345,181.019 C 70.118,182.569 83.787,174.674 86.048,171.602 C 84.573,169.998 72.89,166.297 71.33,168.121 Z" fill="#d0d3da" stroke="none" stroke-linecap="round" stroke-linejoin="round" stroke-width="0.75" marker-start="none" marker-end="none" stroke-miterlimit="79.8403193612775"/>
    <path d="M 44.584,127.052 C 41.041,129.671 31.525,137.956 30.183,141.849 C 31.965,142.911 47.635,140.686 48.224,139.634 C 49.585,137.2 45.563,129.728 45.712,127.072 L 44.584,127.052 Z" fill="#d0d3da" stroke="none" stroke-linecap="round" stroke-linejoin="round" stroke-width="0.75" marker-start="none" marker-end="none" stroke-miterlimit="79.8403193612775"/>
    <path d="M 118.096,87.565 C 123.381,87.565 127.671,82.502 127.671,76.265 C 127.671,70.028 123.381,64.966 118.096,64.966 C 112.811,64.966 108.521,70.028 108.521,76.265 C 108.521,82.502 112.811,87.565 118.096,87.565 Z" fill="#f5f0dc" stroke-width="1.5" stroke="#907a4b" stroke-linecap="round" stroke-linejoin="round" marker-start="none" marker-end="none" stroke-miterlimit="79.8403193612775"/>
    <path d="M 111.845,103.392 C 105.556,99.789 111.175,87.999 114.34,87.049 C 115.044,86.838 115.686,87.11 116.592,87.408 C 116.481,88.038 116.026,88.734 116.118,89.307 C 112.786,92.609 112.613,100.984 113.549,104.458 L 111.845,103.392 Z" fill="#dccca1" stroke-width="1.5" stroke="#907a4b" stroke-linecap="round" stroke-linejoin="round" marker-start="none" marker-end="none" stroke-miterlimit="79.8403193612775"/>
    <path d="M 117.101,69.208 C 115.795,70.569 115.104,72.084 114.834,73.646 C 115.135,73.668 115.21,73.52 115.519,73.573 C 115.314,73.867 114.741,74.49 114.711,74.749 C 114.586,77.143 115.33,79.583 116.262,81.683 C 117.005,83.354 118.602,84.94 119.42,85.584 C 119.05,84.13 119.64,82.827 119.621,81.033 C 119.618,80.824 119.672,79.887 119.734,78.695 C 119.456,78.588 118.36,77.652 118.297,77.434 C 118.611,77.506 119.561,77.749 119.785,77.706 C 119.875,75.819 119.768,74.818 119.606,73.387 C 119.501,72.474 119.494,71.456 119.096,70.676 C 119.756,70.56 119.603,70.517 119.729,70.045 C 119.08,70.274 118.409,69.64 118.129,69.088 C 117.963,68.876 117.811,68.72 117.687,68.651 C 117.48,68.83 117.286,69.017 117.101,69.208 Z" stroke-linecap="round" fill="#c09867" stroke="none" stroke-linejoin="round" stroke-width="0.75" marker-start="none" marker-end="none" stroke-miterlimit="79.8403193612775"/>
    <path d="M 118.477,66.593 C 118.07,67.595 117.809,69.003 117.795,70.09" fill="none" stroke-linecap="round" stroke="#c69e6c" stroke-linejoin="round" stroke-width="0.75" stroke-miterlimit="79.8403193612775"/>
    <path d="M 117.795,69.502 C 116.944,73.573 116.51,77.411 118.244,82.055" fill="none" stroke-linecap="round" stroke-opacity="0.635294" stroke="#f5f0dc" stroke-linejoin="round" stroke-width="0.75" stroke-miterlimit="79.8403193612775" fill-opacity="0.635294"/>
    <path d="M 79.127,159.849 C 80.542,158.126 81.845,156.665 83.4,155.101" fill="none" stroke-width="1.125" stroke="#5d677a" stroke-linecap="round" stroke-linejoin="round" stroke-miterlimit="79.8403193612775"/>
    <path d="M 81.817,161.827 C 82.37,160.605 84.206,157.525 85.141,156.684" fill="none" stroke-width="1.125" stroke="#5d677a" stroke-linecap="round" stroke-linejoin="round" stroke-miterlimit="79.8403193612775"/>
    <path d="M 53.489,140.937 C 55.052,139.596 56.26,138.122 57.92,136.901" fill="none" stroke-width="1.125" stroke="#5d677a" stroke-linecap="round" stroke-linejoin="round" stroke-miterlimit="79.8403193612775"/>
    <path d="M 56.575,142.836 C 57.532,141.38 58.775,139.342 59.978,138.167" fill="none" stroke-width="1.125" stroke="#5d677a" stroke-linecap="round" stroke-linejoin="round" stroke-miterlimit="79.8403193612775"/>
    <path d="M 67.811,96.755 C 68.857,99.772 71.645,103.741 74.221,105.487" fill="none" stroke-width="1.125" stroke="#5d677a" stroke-linecap="round" stroke-linejoin="round" stroke-miterlimit="79.8403193612775"/>
    <path d="M 72.061,95.307 C 72.522,98.027 73.869,101.791 75.748,103.875" fill="none" stroke-width="1.125" stroke="#5d677a" stroke-linecap="round" stroke-linejoin="round" stroke-miterlimit="79.8403193612775"/>
    <path d="M 103.341,128.197 C 106.295,131.08 109.095,133.594 112.995,135.081" fill="none" stroke-width="1.125" stroke="#5d677a" stroke-linecap="round" stroke-linejoin="round" stroke-miterlimit="79.8403193612775"/>
    <path d="M 104.594,126.497 C 107.412,129.045 112.784,131.508 116.647,130.697" fill="none" stroke-width="1.125" stroke="#5d677a" stroke-linecap="round" stroke-linejoin="round" stroke-miterlimit="79.8403193612775"/>
    <path d="M 126.879,28.219 C 131.409,24.579 137.544,24.256 141.439,27.427" fill="none" stroke-width="1.5" stroke="#5d677a" stroke-linecap="round" stroke-linejoin="round" stroke-miterlimit="79.8403193612775"/>
    <path d="M 128.779,39.93 C 133.21,36.29 139.211,35.967 143.022,39.139" fill="none" stroke-width="1.5" stroke="#5d677a" stroke-linecap="round" stroke-linejoin="round" stroke-miterlimit="79.8403193612775"/>
    <path d="M 131.469,151.503 C 131.817,151.696 131.975,151.957 131.944,152.284 C 135.245,156.388 141.718,155.565 144.13,152.341" fill="none" stroke-width="1.5" stroke="#5d677a" stroke-linecap="round" stroke-linejoin="round" stroke-miterlimit="79.8403193612775"/>
    <path d="M 130.994,164.322 C 132.677,168.024 140.213,170.819 144.605,166.854" fill="none" stroke-width="1.5" stroke="#5d677a" stroke-linecap="round" stroke-linejoin="round" stroke-miterlimit="79.8403193612775"/>
   </g>
  </g>
 </g>
</svg>